# Blender 4.5.4 LTS
# www.blender.org
mtllib Untitled.mtl
o Cube
v -0.050000 1.112766 2.159990
v -0.050000 -1.112766 2.159990
v -0.050000 1.112766 -2.159990
v -0.050000 -1.112766 -2.159990
v 0.050000 1.112766 2.159990
v 0.050000 -1.112766 2.159990
v 0.050000 1.112766 -2.159990
v 0.050000 -1.112766 -2.159990
v -0.050000 1.095685 2.126836
v -0.050000 -1.095685 2.126836
v -0.050000 -1.095685 -2.126836
v -0.050000 1.095685 -2.126836
v -0.049233 1.095685 -2.159990
v -0.049233 -1.095685 -2.159990
v 0.049233 -1.095685 -2.159990
v 0.049233 1.095685 -2.159990
v 0.050000 1.095686 -2.126836
v 0.050000 -1.095686 -2.126836
v 0.050000 -1.095686 2.126836
v 0.050000 1.095686 2.126836
v 0.049233 1.095685 2.159990
v 0.049233 -1.095685 2.159990
v -0.049233 -1.095685 2.159990
v -0.049233 1.095685 2.159990
v -0.049233 1.112766 -2.126836
v 0.049233 1.112766 -2.126836
v 0.049233 1.112766 2.126836
v -0.049233 1.112766 2.126836
v 0.049233 -1.112766 -2.126836
v -0.049233 -1.112766 -2.126836
v -0.049233 -1.112766 2.126836
v 0.049233 -1.112766 2.126836
v 0.020537 1.095686 -2.126836
v 0.020537 -1.095686 -2.126836
v 0.020537 -1.095686 2.126836
v 0.020537 1.095686 2.126836
v 0.010914 1.095686 -2.126836
v 0.010914 -1.095686 -2.126836
v 0.010914 -1.095686 2.126836
v 0.010914 1.095686 2.126836
vn -1.0000 -0.0000 -0.0000
vn -0.0000 -0.0000 -1.0000
vn -0.0000 1.0000 -0.0000
vn -0.0000 -0.0000 1.0000
vn -0.0000 -1.0000 -0.0000
vn 1.0000 -0.0000 -0.0000
vt 0.376919 0.001919
vt 0.623081 0.001919
vt 0.623081 0.248081
vt 0.376919 0.248081
vt 0.376919 0.251919
vt 0.623081 0.251919
vt 0.623081 0.498081
vt 0.376919 0.498081
vt 0.623081 0.501919
vt 0.623081 0.748081
vt 0.376919 0.751919
vt 0.623081 0.751919
vt 0.623081 0.998081
vt 0.376919 0.998081
vt 0.126919 0.501919
vt 0.373081 0.501919
vt 0.373081 0.748081
vt 0.126919 0.748081
vt 0.626919 0.501919
vt 0.873081 0.501919
vt 0.873081 0.748081
vt 0.626919 0.748081
vt 0.375000 0.000000
vt 0.625000 0.000000
vt 0.625000 0.250000
vt 0.375000 0.250000
vt 0.625000 0.500000
vt 0.375000 0.500000
vt 0.376919 0.501919
vt 0.625000 0.750000
vt 0.375000 0.750000
vt 0.376919 0.748081
vt 0.625000 1.000000
vt 0.375000 1.000000
vt 0.125000 0.500000
vt 0.125000 0.750000
vt 0.875000 0.500000
vt 0.875000 0.750000
s 1
usemtl Material.001
f 9/1/1 12/4/1 11/3/1 10/2/1
f 13/5/2 16/8/2 15/7/2 14/6/2
f 18/9/3 34/9/3 35/10/3 19/10/3
f 21/11/4 24/14/4 23/13/4 22/12/4
f 25/15/3 28/18/3 27/17/3 26/16/3
f 29/19/5 32/22/5 31/21/5 30/20/5
f 1/23/1 9/1/1 10/2/1 2/24/1
f 2/24/1 10/2/1 11/3/1 4/25/1
f 4/25/1 11/3/1 12/4/1 3/26/1
f 3/26/1 12/4/1 9/1/1 1/23/1
f 3/26/2 13/5/2 14/6/2 4/25/2
f 4/25/2 14/6/2 15/7/2 8/27/2
f 8/27/2 15/7/2 16/8/2 7/28/2
f 7/28/2 16/8/2 13/5/2 3/26/2
f 7/28/6 17/29/6 18/9/6 8/27/6
f 8/27/6 18/9/6 19/10/6 6/30/6
f 6/30/6 19/10/6 20/32/6 5/31/6
f 5/31/6 20/32/6 17/29/6 7/28/6
f 5/31/4 21/11/4 22/12/4 6/30/4
f 6/30/4 22/12/4 23/13/4 2/33/4
f 2/33/4 23/13/4 24/14/4 1/34/4
f 1/34/4 24/14/4 21/11/4 5/31/4
f 3/35/3 25/15/3 26/16/3 7/28/3
f 7/28/3 26/16/3 27/17/3 5/31/3
f 5/31/3 27/17/3 28/18/3 1/36/3
f 1/36/3 28/18/3 25/15/3 3/35/3
f 8/27/5 29/19/5 30/20/5 4/37/5
f 4/37/5 30/20/5 31/21/5 2/38/5
f 2/38/5 31/21/5 32/22/5 6/30/5
f 6/30/5 32/22/5 29/19/5 8/27/5
f 34/9/3 38/9/3 39/10/3 35/10/3
f 17/29/4 33/29/4 34/9/4 18/9/4
f 19/10/2 35/10/2 36/32/2 20/32/2
f 20/32/5 36/32/5 33/29/5 17/29/5
f 37/29/6 40/32/6 39/10/6 38/9/6
f 33/29/4 37/29/4 38/9/4 34/9/4
f 35/10/2 39/10/2 40/32/2 36/32/2
f 36/32/5 40/32/5 37/29/5 33/29/5
o Cube.001
v -1.829857 0.674404 0.209233
v -1.744414 0.831068 0.209233
v -1.829857 0.674404 -0.209233
v -1.744414 0.831068 -0.209233
v -0.074018 -0.283212 0.209233
v 0.011425 -0.126548 0.209233
v -0.074018 -0.283212 -0.209233
v 0.011425 -0.126548 -0.209233
vn -0.8779 0.4788 -0.0000
vn -0.0000 -0.0000 -1.0000
vn 0.8779 -0.4788 -0.0000
vn -0.0000 -0.0000 1.0000
vn -0.4788 -0.8779 -0.0000
vn 0.4788 0.8779 -0.0000
vt 0.375000 0.000000
vt 0.625000 0.000000
vt 0.625000 0.250000
vt 0.375000 0.250000
vt 0.625000 0.500000
vt 0.375000 0.500000
vt 0.625000 0.750000
vt 0.375000 0.750000
vt 0.625000 1.000000
vt 0.375000 1.000000
vt 0.125000 0.500000
vt 0.125000 0.750000
vt 0.875000 0.500000
vt 0.875000 0.750000
s 0
usemtl Material.002
f 41/39/7 42/40/7 44/41/7 43/42/7
f 43/42/8 44/41/8 48/43/8 47/44/8
f 47/44/9 48/43/9 46/45/9 45/46/9
f 45/46/10 46/45/10 42/47/10 41/48/10
f 43/49/11 47/44/11 45/46/11 41/50/11
f 48/43/12 44/51/12 42/52/12 46/45/12
